<mxfile host="65bd71144e">
    <diagram name="Page-1" id="2c0d36ab-eaac-3732-788b-9136903baeff">
        <mxGraphModel dx="1581" dy="728" grid="1" gridSize="10" guides="1" tooltips="1" connect="1" arrows="1" fold="1" page="1" pageScale="1.5" pageWidth="1169" pageHeight="827" background="none" math="0" shadow="0">
            <root>
                <mxCell id="0"/>
                <mxCell id="1" parent="0"/>
                <mxCell id="123" value="" style="fillColor=#AE4132;strokeColor=none;opacity=30;" parent="1" vertex="1">
                    <mxGeometry x="520" y="178.5" width="439" height="100" as="geometry"/>
                </mxCell>
                <mxCell id="122" value="" style="fillColor=#10739E;strokeColor=none;opacity=30;" parent="1" vertex="1">
                    <mxGeometry x="290" y="415" width="670" height="100" as="geometry"/>
                </mxCell>
                <mxCell id="120" value="" style="fillColor=#F2931E;strokeColor=none;opacity=30;" parent="1" vertex="1">
                    <mxGeometry x="750" y="300" width="210" height="100" as="geometry"/>
                </mxCell>
                <mxCell id="2" value="Genossenschaftswohnungen" style="rounded=1;fillColor=#23445D;gradientColor=none;strokeColor=none;fontColor=#FFFFFF;fontStyle=1;fontFamily=Tahoma;fontSize=12;" parent="1" vertex="1">
                    <mxGeometry x="759" y="188.5" width="190" height="80" as="geometry"/>
                </mxCell>
                <mxCell id="4" value="Langer Boris" style="rounded=1;fillColor=#23445D;gradientColor=none;strokeColor=none;fontColor=#FFFFFF;fontStyle=1;fontFamily=Tahoma;fontSize=14" parent="1" vertex="1">
                    <mxGeometry x="528.9999999999998" y="425" width="190" height="80" as="geometry"/>
                </mxCell>
                <mxCell id="10" value="Philipp Rohr" style="rounded=1;fillColor=#23445D;gradientColor=none;strokeColor=none;fontColor=#FFFFFF;fontStyle=1;fontFamily=Tahoma;fontSize=14" parent="1" vertex="1">
                    <mxGeometry x="760" y="425" width="190" height="80" as="geometry"/>
                </mxCell>
                <mxCell id="12" value="Dany AmbÃ¼hl" style="rounded=1;fillColor=#23445D;gradientColor=none;strokeColor=none;fontColor=#FFFFFF;fontStyle=1;fontFamily=Tahoma;fontSize=14" parent="1" vertex="1">
                    <mxGeometry x="759.9999999999999" y="310" width="190" height="80" as="geometry"/>
                </mxCell>
                <mxCell id="9tRRL9XbMgnSDc0lEwPz-123" value="Github" style="rounded=1;fillColor=#23445D;gradientColor=none;strokeColor=none;fontColor=#FFFFFF;fontStyle=1;fontFamily=Tahoma;fontSize=14" parent="1" vertex="1">
                    <mxGeometry x="529" y="188.5" width="190" height="80" as="geometry"/>
                </mxCell>
                <mxCell id="9tRRL9XbMgnSDc0lEwPz-125" value="Marcel Bernet" style="rounded=1;fillColor=#23445D;gradientColor=none;strokeColor=none;fontColor=#FFFFFF;fontStyle=1;fontFamily=Tahoma;fontSize=14" parent="1" vertex="1">
                    <mxGeometry x="299.9999999999998" y="425" width="190" height="80" as="geometry"/>
                </mxCell>
                <mxCell id="9tRRL9XbMgnSDc0lEwPz-126" value="" style="endArrow=none;html=1;rounded=0;entryX=0.5;entryY=1;entryDx=0;entryDy=0;exitX=0.5;exitY=0;exitDx=0;exitDy=0;strokeWidth=3;" parent="1" source="12" target="2" edge="1">
                    <mxGeometry width="50" height="50" relative="1" as="geometry">
                        <mxPoint x="520" y="340" as="sourcePoint"/>
                        <mxPoint x="570" y="290" as="targetPoint"/>
                    </mxGeometry>
                </mxCell>
                <mxCell id="9tRRL9XbMgnSDc0lEwPz-128" value="" style="endArrow=none;html=1;rounded=0;entryX=0.5;entryY=1;entryDx=0;entryDy=0;strokeWidth=3;" parent="1" source="10" target="12" edge="1">
                    <mxGeometry width="50" height="50" relative="1" as="geometry">
                        <mxPoint x="865" y="320" as="sourcePoint"/>
                        <mxPoint x="864" y="278.5" as="targetPoint"/>
                    </mxGeometry>
                </mxCell>
                <mxCell id="9tRRL9XbMgnSDc0lEwPz-129" value="" style="endArrow=none;html=1;rounded=0;entryX=1;entryY=0.5;entryDx=0;entryDy=0;strokeWidth=3;exitX=0;exitY=0.5;exitDx=0;exitDy=0;" parent="1" source="10" target="4" edge="1">
                    <mxGeometry width="50" height="50" relative="1" as="geometry">
                        <mxPoint x="865" y="435" as="sourcePoint"/>
                        <mxPoint x="865" y="400" as="targetPoint"/>
                    </mxGeometry>
                </mxCell>
                <mxCell id="9tRRL9XbMgnSDc0lEwPz-130" value="" style="endArrow=none;html=1;rounded=0;entryX=1;entryY=0.5;entryDx=0;entryDy=0;strokeWidth=3;exitX=0;exitY=0.5;exitDx=0;exitDy=0;" parent="1" source="4" target="9tRRL9XbMgnSDc0lEwPz-125" edge="1">
                    <mxGeometry width="50" height="50" relative="1" as="geometry">
                        <mxPoint x="520" y="440" as="sourcePoint"/>
                        <mxPoint x="478.9999999999998" y="440" as="targetPoint"/>
                    </mxGeometry>
                </mxCell>
                <mxCell id="9tRRL9XbMgnSDc0lEwPz-131" value="" style="endArrow=none;html=1;rounded=0;entryX=0;entryY=0.5;entryDx=0;entryDy=0;strokeWidth=3;" parent="1" source="9tRRL9XbMgnSDc0lEwPz-123" target="2" edge="1">
                    <mxGeometry width="50" height="50" relative="1" as="geometry">
                        <mxPoint x="865" y="320" as="sourcePoint"/>
                        <mxPoint x="864" y="278.5" as="targetPoint"/>
                    </mxGeometry>
                </mxCell>
                <mxCell id="9tRRL9XbMgnSDc0lEwPz-133" value="&lt;font face=&quot;Tahoma&quot;&gt;Projekt&lt;/font&gt;" style="rounded=1;whiteSpace=wrap;html=1;strokeWidth=2;" parent="1" vertex="1">
                    <mxGeometry x="837" y="185.5" width="120" height="20" as="geometry"/>
                </mxCell>
                <mxCell id="9tRRL9XbMgnSDc0lEwPz-135" value="&lt;font face=&quot;Tahoma&quot;&gt;Dokumentablage&lt;/font&gt;" style="rounded=1;whiteSpace=wrap;html=1;strokeWidth=2;" parent="1" vertex="1">
                    <mxGeometry x="606" y="185.5" width="120" height="20" as="geometry"/>
                </mxCell>
                <mxCell id="9tRRL9XbMgnSDc0lEwPz-136" value="&lt;font face=&quot;Tahoma&quot;&gt;Projekt&lt;/font&gt;" style="rounded=1;whiteSpace=wrap;html=1;strokeWidth=2;" parent="1" vertex="1">
                    <mxGeometry x="838" y="304" width="120" height="20" as="geometry"/>
                </mxCell>
                <mxCell id="9tRRL9XbMgnSDc0lEwPz-137" value="&lt;font face=&quot;Tahoma&quot;&gt;Projekt Experte&lt;/font&gt;" style="rounded=1;whiteSpace=wrap;html=1;strokeWidth=2;" parent="1" vertex="1">
                    <mxGeometry x="838" y="420" width="120" height="20" as="geometry"/>
                </mxCell>
                <mxCell id="9tRRL9XbMgnSDc0lEwPz-138" value="&lt;font face=&quot;Tahoma&quot;&gt;Fach Experte&lt;/font&gt;" style="rounded=1;whiteSpace=wrap;html=1;strokeWidth=2;" parent="1" vertex="1">
                    <mxGeometry x="606" y="420" width="120" height="20" as="geometry"/>
                </mxCell>
                <mxCell id="9tRRL9XbMgnSDc0lEwPz-139" value="&lt;font face=&quot;Tahoma&quot;&gt;Studiengangleiter&lt;/font&gt;" style="rounded=1;whiteSpace=wrap;html=1;strokeWidth=2;" parent="1" vertex="1">
                    <mxGeometry x="378" y="420" width="120" height="20" as="geometry"/>
                </mxCell>
            </root>
        </mxGraphModel>
    </diagram>
</mxfile>